<svg width="16" height="16" viewBox="0 0 16 16" fill="none" xmlns="http://www.w3.org/2000/svg">
<path d="M1.59998 3C2.13466 3 2.66934 3 3.22023 3C3.22023 6.3 3.22023 9.6 3.22023 13C2.68555 13 2.15086 13 1.59998 13C1.59998 9.7 1.59998 6.4 1.59998 3Z" fill="white"/>
<path d="M6.30317 8.4844L5.81263 9.6L5.3221 8.4844L4.19238 8L5.3221 7.5156L5.81263 6.4L6.30317 7.5156L7.43289 8L6.30317 8.4844Z" fill="white"/>
<path d="M12.702 7.14384C13.2623 7.14384 13.8227 7.14384 14.4 7.14384C14.4 7.6976 14.4 8.25137 14.4 8.82192C13.8396 8.82192 13.2793 8.82192 12.702 8.82192C12.702 8.26815 12.702 7.71438 12.702 7.14384Z" fill="white"/>
<path d="M12.702 11.3562C13.2623 11.3562 13.8227 11.3562 14.4 11.3562C14.4 11.8986 14.4 12.4411 14.4 13C13.8396 13 13.2793 13 12.702 13C12.702 12.4575 12.702 11.9151 12.702 11.3562Z" fill="white"/>
<path d="M10.5535 11.3562C11.1138 11.3562 11.6742 11.3562 12.2515 11.3562C12.2515 11.8986 12.2515 12.4411 12.2515 13C11.6912 13 11.1308 13 10.5535 13C10.5535 12.4575 10.5535 11.9151 10.5535 11.3562Z" fill="white"/>
<path d="M12.702 3C13.2623 3 13.8227 3 14.4 3C14.4 3.54247 14.4 4.08493 14.4 4.64384C13.8396 4.64384 13.2793 4.64384 12.702 4.64384C12.702 4.10137 12.702 3.5589 12.702 3Z" fill="white"/>
<path d="M8.40504 11.3562C8.95394 11.3562 9.50284 11.3562 10.0684 11.3562C10.0684 11.8986 10.0684 12.4411 10.0684 13C9.51947 13 8.97057 13 8.40504 13C8.40504 12.4575 8.40504 11.9151 8.40504 11.3562Z" fill="white"/>
<path d="M8.40504 9.26712C8.95394 9.26712 9.50284 9.26712 10.0684 9.26712C10.0684 9.80959 10.0684 10.3521 10.0684 10.911C9.51947 10.911 8.97057 10.911 8.40504 10.911C8.40504 10.3685 8.40504 9.82603 8.40504 9.26712Z" fill="white"/>
<path d="M10.5535 7.17808C11.1024 7.17808 11.6513 7.17808 12.2168 7.17808C12.2168 7.70925 12.2168 8.24041 12.2168 8.78767C11.6679 8.78767 11.119 8.78767 10.5535 8.78767C10.5535 8.25651 10.5535 7.72534 10.5535 7.17808Z" fill="white"/>
<path d="M8.40504 7.17808C8.95394 7.17808 9.50284 7.17808 10.0684 7.17808C10.0684 7.70925 10.0684 8.24041 10.0684 8.78767C9.51947 8.78767 8.97057 8.78767 8.40504 8.78767C8.40504 8.25651 8.40504 7.72534 8.40504 7.17808Z" fill="white"/>
<path d="M8.40504 5.08904C8.95394 5.08904 9.50284 5.08904 10.0684 5.08904C10.0684 5.62021 10.0684 6.15137 10.0684 6.69863C9.51947 6.69863 8.97057 6.69863 8.40504 6.69863C8.40504 6.16747 8.40504 5.6363 8.40504 5.08904Z" fill="white"/>
<path d="M10.5535 3C11.1024 3 11.6513 3 12.2168 3C12.2168 3.53116 12.2168 4.06233 12.2168 4.60959C11.6679 4.60959 11.119 4.60959 10.5535 4.60959C10.5535 4.07842 10.5535 3.54726 10.5535 3Z" fill="white"/>
<path d="M8.40504 3C8.95394 3 9.50284 3 10.0684 3C10.0684 3.53116 10.0684 4.06233 10.0684 4.60959C9.51947 4.60959 8.97057 4.60959 8.40504 4.60959C8.40504 4.07842 8.40504 3.54726 8.40504 3Z" fill="white"/>
</svg>
