<svg width="16" height="16" viewBox="0 0 16 16" fill="none" xmlns="http://www.w3.org/2000/svg">
<path d="M1.38916 10.7913V5.20882C1.38916 4.38606 1.38916 3.97437 1.54928 3.66012C1.69013 3.3837 1.9147 3.15912 2.19113 3.01827C2.50538 2.85815 2.91707 2.85815 3.73982 2.85815H12.2605C13.0832 2.85815 13.494 2.85815 13.8083 3.01827C14.0847 3.15912 14.31 3.3837 14.4509 3.66012C14.6108 3.97407 14.6108 4.38525 14.6108 5.20641V10.7938C14.6108 11.6149 14.6108 12.0255 14.4509 12.3395C14.31 12.6159 14.0847 12.8409 13.8083 12.9817C13.4943 13.1417 13.0837 13.1417 12.2626 13.1417H3.73741C2.91626 13.1417 2.50507 13.1417 2.19113 12.9817C1.9147 12.8409 1.69013 12.6159 1.54928 12.3395C1.38916 12.0252 1.38916 11.6141 1.38916 10.7913Z" fill="white"/>
<path d="M13.3089 3.49935C13.5434 3.3275 13.8736 3.37836 14.0457 3.61255C14.2178 3.84721 14.1661 4.17732 13.9315 4.34939C13.1663 4.91059 12.0968 5.71819 11.2167 6.38702C10.7772 6.72108 10.386 7.02065 10.1043 7.23603C9.96353 7.34363 9.84998 7.43038 9.77186 7.49022C9.73283 7.52013 9.70177 7.54348 9.6813 7.55917C9.6714 7.56677 9.66381 7.57272 9.65866 7.57667C9.65621 7.57854 9.65249 7.58078 9.65249 7.58078L9.65043 7.58284L9.64117 7.59004C9.20126 7.91265 8.86722 8.16803 8.48445 8.2672C8.16725 8.34919 7.83326 8.34924 7.51607 8.2672C7.13348 8.16807 6.79967 7.91322 6.36038 7.59107L6.33568 7.57152L2.06181 4.34528C1.83009 4.1698 1.78368 3.83841 1.9589 3.60638C2.13417 3.37445 2.46565 3.32857 2.69779 3.50347L6.98402 6.74103L7.3051 6.97361C7.56788 7.16006 7.67532 7.22022 7.77952 7.24735C7.92361 7.28462 8.07587 7.28455 8.21997 7.24735C8.35867 7.21148 8.50227 7.11787 9.0093 6.74618L9.01136 6.74515C9.01136 6.74515 9.01406 6.7419 9.0165 6.74C9.02175 6.73598 9.02996 6.73034 9.04017 6.72251C9.06075 6.70673 9.09157 6.68356 9.13073 6.65356C9.2091 6.59352 9.32305 6.50622 9.46416 6.39834C9.74648 6.18251 10.1392 5.88306 10.5797 5.5483C11.4601 4.87922 12.5357 4.06633 13.3089 3.49935Z" fill="#141414"/>
</svg>
