<svg width="18" height="10" viewBox="0 0 18 10" fill="none" xmlns="http://www.w3.org/2000/svg">
<path d="M3.32049 0C3.89976 0 4.42215 0.0704225 4.88763 0.211267C5.36347 0.342723 5.76689 0.535212 6.09791 0.788732C6.42892 1.04225 6.68235 1.35681 6.85821 1.73239C7.0444 2.09859 7.1375 2.51643 7.1375 2.98592C7.1375 3.64319 6.96165 4.20657 6.60994 4.67606C6.25824 5.14554 5.78758 5.49765 5.19796 5.73239L8.27019 9.56338V9.85916H6.02032L2.9481 6.02817H2.07918V9.85916H0V0H3.32049ZM3.25842 4.40845C3.81701 4.40845 4.24629 4.277 4.54628 4.01408C4.84626 3.75117 4.99625 3.41315 4.99625 3C4.99625 2.60563 4.85143 2.277 4.56179 2.01408C4.27215 1.75117 3.84804 1.61972 3.28946 1.61972H2.07918V4.40845H3.25842Z" fill="#141414"/>
<path d="M13.8106 10C12.3934 10 11.3176 9.64319 10.5832 8.92958C9.85911 8.20657 9.49707 7.22066 9.49707 5.97183V0H11.5763V5.80282C11.5763 6.65728 11.7676 7.28169 12.1504 7.67606C12.5434 8.06103 13.0865 8.25352 13.7796 8.25352C14.4726 8.25352 15.0157 8.05634 15.4088 7.66197C15.8019 7.26761 15.9984 6.68075 15.9984 5.90141V0H18V5.90141C18 7.20657 17.6276 8.21596 16.8828 8.92958C16.1484 9.64319 15.1243 10 13.8106 10Z" fill="#141414"/>
</svg>
