<svg width="16" height="16" viewBox="0 0 16 16" fill="none" xmlns="http://www.w3.org/2000/svg">
<path d="M9.3844 3.76518C8.21278 4.31187 5.86954 5.44239 2.35769 7.15672C1.78844 7.40982 1.48876 7.65954 1.46165 7.90252C1.41647 8.31254 1.87579 8.47453 2.50075 8.69557L2.76429 8.78837C3.37871 9.01279 4.20698 9.27432 4.63617 9.28445C5.02772 9.29457 5.46294 9.11572 5.94333 8.7445C9.22477 6.26243 10.919 5.00874 11.0244 4.98175C11.0997 4.9615 11.2051 4.93787 11.2744 5.00874C11.3451 5.07792 11.3376 5.21122 11.3301 5.24666C11.2849 5.46432 9.48229 7.34064 8.55011 8.31254C8.25947 8.61626 8.05315 8.83056 8.01099 8.87949C7.91813 8.98581 7.82375 9.09044 7.72787 9.19333C7.15561 9.8109 6.72793 10.2732 7.75046 11.0292C8.2429 11.3936 8.63746 11.6923 9.03051 11.9926C9.45819 12.32 9.88588 12.6456 10.4401 13.054C10.5801 13.1552 10.7157 13.2649 10.8467 13.3695C11.3451 13.7677 11.7954 14.1254 12.3481 14.068C12.6704 14.0343 13.0032 13.6968 13.1718 12.6844C13.5709 10.2935 14.3555 5.11504 14.5362 2.98057C14.5473 2.80313 14.5407 2.62487 14.5166 2.44906C14.5025 2.30719 14.4412 2.17648 14.345 2.0829C14.2079 1.97692 14.0446 1.92201 13.8781 1.92598C13.4263 1.93442 12.7291 2.20608 9.3844 3.76518Z" fill="white"/>
</svg>
