<svg width="16" height="16" viewBox="0 0 16 16" fill="none" xmlns="http://www.w3.org/2000/svg">
<path d="M15.6332 4.17579C15.7449 3.8045 15.6332 3.53223 15.1046 3.53223H13.3535C12.908 3.53223 12.7044 3.76777 12.5926 4.02648C12.5926 4.02648 11.7023 6.1975 10.4407 7.6052C10.0335 8.01481 9.84747 8.14416 9.6255 8.14416C9.51451 8.14416 9.35322 8.01481 9.35322 7.64352V4.17579C9.35322 3.73025 9.22467 3.53223 8.85338 3.53223H6.10187C5.82401 3.53223 5.65633 3.73823 5.65633 3.93465C5.65633 4.35624 6.28712 4.45366 6.35179 5.64177V8.21922C6.35179 8.78373 6.25039 8.88673 6.02682 8.88673C5.43356 8.88673 3.98993 6.70772 3.13318 4.21332C2.9663 3.72865 2.79782 3.53303 2.35068 3.53303H0.600446C0.0998082 3.53303 0 3.76857 0 4.02728C0 4.49198 0.59326 6.79156 2.76349 9.83291C4.21031 11.9097 6.24719 13.0356 8.10282 13.0356C9.21509 13.0356 9.35242 12.7856 9.35242 12.3545V10.7847C9.35242 10.2848 9.45862 10.1842 9.81074 10.1842C10.0694 10.1842 10.515 10.3152 11.5538 11.3157C12.7403 12.5022 12.9367 13.0348 13.6035 13.0348H15.3537C15.8535 13.0348 16.1034 12.7848 15.9597 12.2914C15.8024 11.8003 15.2355 11.0857 14.4834 10.2401C14.0745 9.75786 13.4637 9.23886 13.2777 8.97936C13.0182 8.6448 13.0932 8.49708 13.2777 8.20005C13.2785 8.20085 15.4112 5.19703 15.6332 4.17579Z" fill="white"/>
</svg>
